# xmcd
#
# Track frame offsets:
#	150
#	23018
#	33905
#	59340
#	83422
#	93329
#	109159
#	117548
#	133613
#	143731
#	147840
#	153253
#	175039
#	185165
#	196015
#	213280
#	234940
#	255161
#	269182
#	274458
#	295050
#
# Disc length: 4108 seconds
#
# Revision: 1
# Processed by: cddbd v1.5.2PL0 Copyright (c) Steve Scherf et al.
# Submitted via: audiograbber 1.83.01
#
DISCID=28100a15
DTITLE=Leadbelly - The Remaining Library Of Congress Recordings Vol. 5 1938 - 1
DTITLE=942
DYEAR=1997
DGENRE=Blues
TTITLE0=Scottsboro Boys (2502-A-1)
TTITLE1=Noted Rider Blues (2502-B-1)
TTITLE2=John Henry (2503-B)
TTITLE3=John Henry (2504-A)
TTITLE4=Eva (2504-B)
TTITLE5=Last Night In The Evening (4469-A-1)
TTITLE6=Meeting At The Building (4471-A-1)
TTITLE7=When The Train Comes Along (4471-A-2)
TTITLE8=The Blood Done Sign My Name (4471-A-3)
TTITLE9=Witness For My Lord (4471-A-4)
TTITLE10=Soldiers In The Army Of My Lord (4471-A-4(a))
TTITLE11=Outshine The Sun (4471-A-5)
TTITLE12=Way Over In The Promised Land (4471-B-2)
TTITLE13=Must I Be Carried To The Sky On Flowered Beds Of Ease? (4471-B-10) 
TTITLE14=Bottle Up And Go (4472-B-3)
TTITLE15=Don't You Love Me No More? (4473-A-4)
TTITLE16=The Gallows Song (4473-B-2)
TTITLE17=Ham And Eggs (4473-B-4)
TTITLE18=Bottle Up And Go (fragment) (4473-B-5)
TTITLE19=How Long (Brownie McGhee-Sonny Terry-Leadbelly) (6502-A-3)
TTITLE20=T. B. Blues (6502-B-1)
EXTD=
EXTT0=
EXTT1=
EXTT2=
EXTT3=
EXTT4=
EXTT5=
EXTT6=
EXTT7=
EXTT8=
EXTT9=
EXTT10=
EXTT11=
EXTT12=
EXTT13=
EXTT14=
EXTT15=
EXTT16=
EXTT17=
EXTT18=
EXTT19=
EXTT20=
PLAYORDER=
